<?xml version="1.0" standalone="no"?>
<svg viewBox="0 0 200 200" xmlns="http://www.w3.org/2000/svg">
  <path fill="#5000CA" d="M29,-59.4C33.6,-47.6,30.6,-31.8,31.7,-21.2C32.8,-10.7,37.9,-5.3,45.3,4.3C52.7,13.9,62.5,27.8,62.6,40.4C62.7,53,53.1,64.2,41.1,72.6C29,80.9,14.5,86.4,-0.1,86.5C-14.7,86.6,-29.3,81.4,-34.2,68.9C-39.1,56.4,-34.2,36.7,-38.2,24C-42.2,11.3,-54.9,5.7,-59.5,-2.6C-64,-10.9,-60.3,-21.8,-51.4,-25.9C-42.5,-30,-28.4,-27.4,-19,-36.5C-9.6,-45.6,-4.8,-66.3,3.7,-72.7C12.2,-79.2,24.4,-71.3,29,-59.4Z" transform="translate(100 100)" />
</svg>
